<mxfile host="app.diagrams.net" modified="2022-01-09T04:01:43.010Z" agent="5.0 (X11; Linux x86_64) AppleWebKit/537.36 (KHTML, like Gecko) Chrome/97.0.4692.71 Safari/537.36" etag="2wahdbzWZ9VlwHC_nvYJ" version="16.2.4" type="github">
  <diagram id="4_eKTBp7-4AWYXpG5wcf" name="Page-1">
    <mxGraphModel dx="1350" dy="773" grid="1" gridSize="10" guides="1" tooltips="1" connect="1" arrows="1" fold="1" page="1" pageScale="1" pageWidth="827" pageHeight="1169" math="0" shadow="0">
      <root>
        <mxCell id="0" />
        <mxCell id="1" parent="0" />
        <mxCell id="ax-zA3X9h0pPfd9xHqZ6-10" style="edgeStyle=orthogonalEdgeStyle;rounded=0;orthogonalLoop=1;jettySize=auto;html=1;" edge="1" parent="1" source="ax-zA3X9h0pPfd9xHqZ6-1" target="ax-zA3X9h0pPfd9xHqZ6-6">
          <mxGeometry relative="1" as="geometry" />
        </mxCell>
        <mxCell id="ax-zA3X9h0pPfd9xHqZ6-1" value="&lt;div&gt;#include &amp;lt;stdio.h&amp;gt;&lt;/div&gt;&lt;div&gt;&lt;br&gt;&lt;/div&gt;&lt;div&gt;extern void extern_func();&lt;/div&gt;&lt;div&gt;&lt;br&gt;&lt;/div&gt;&lt;div&gt;static void static_func()&lt;/div&gt;&lt;div&gt;{&lt;/div&gt;&lt;div&gt;&amp;nbsp; &amp;nbsp; printf(&quot;static_func\n&quot;);&lt;/div&gt;&lt;div&gt;}&lt;/div&gt;&lt;div&gt;&lt;br&gt;&lt;/div&gt;&lt;div&gt;void global_func()&lt;/div&gt;&lt;div&gt;{&lt;/div&gt;&lt;div&gt;&amp;nbsp; &amp;nbsp; printf(&quot;global_func\n&quot;);&lt;/div&gt;&lt;div&gt;}&lt;/div&gt;&lt;div&gt;&lt;br&gt;&lt;/div&gt;&lt;div&gt;int global_init_var = 10;&lt;/div&gt;&lt;div&gt;int global_uninit_var;&lt;/div&gt;&lt;div&gt;&lt;br&gt;&lt;/div&gt;&lt;div&gt;extern int extern_var;&lt;/div&gt;&lt;div&gt;&lt;br&gt;&lt;/div&gt;&lt;div&gt;static int local_unit_var;&lt;/div&gt;&lt;div&gt;static int static_init_var = 10;&lt;/div&gt;&lt;div&gt;&lt;br&gt;&lt;/div&gt;&lt;div&gt;int main(int argc, char **argv)&lt;/div&gt;&lt;div&gt;{&lt;/div&gt;&lt;div&gt;&amp;nbsp; &amp;nbsp; int local_init_var = 10;&lt;/div&gt;&lt;div&gt;&amp;nbsp; &amp;nbsp; int local_unit_var;&lt;/div&gt;&lt;div&gt;&lt;br&gt;&lt;/div&gt;&lt;div&gt;&amp;nbsp; &amp;nbsp; static int static_init_var = 10;&lt;/div&gt;&lt;div&gt;&amp;nbsp; &amp;nbsp; static int static_uninit_var;&lt;/div&gt;&lt;div&gt;&lt;br&gt;&lt;/div&gt;&lt;div&gt;&amp;nbsp; &amp;nbsp; global_func();&lt;/div&gt;&lt;div&gt;&lt;br&gt;&lt;/div&gt;&lt;div&gt;&amp;nbsp; &amp;nbsp; static_func();&lt;/div&gt;&lt;div&gt;&lt;br&gt;&lt;/div&gt;&lt;div&gt;&amp;nbsp; &amp;nbsp; extern_func();&lt;/div&gt;&lt;div&gt;&lt;br&gt;&lt;/div&gt;&lt;div&gt;&amp;nbsp; &amp;nbsp; return 0;&lt;/div&gt;&lt;div&gt;}&lt;/div&gt;&lt;div&gt;&lt;br&gt;&lt;/div&gt;" style="text;html=1;strokeColor=#666666;fillColor=#f5f5f5;align=left;verticalAlign=middle;whiteSpace=wrap;rounded=0;fontColor=#333333;" vertex="1" parent="1">
          <mxGeometry x="50" y="100" width="190" height="590" as="geometry" />
        </mxCell>
        <mxCell id="ax-zA3X9h0pPfd9xHqZ6-9" value="gcc -c simple.c -o simple.o" style="rounded=1;whiteSpace=wrap;html=1;fillColor=#dae8fc;strokeColor=#6c8ebf;" vertex="1" parent="1">
          <mxGeometry x="334" y="350" width="160" height="40" as="geometry" />
        </mxCell>
        <mxCell id="ax-zA3X9h0pPfd9xHqZ6-21" value="" style="group" vertex="1" connectable="0" parent="1">
          <mxGeometry x="590" y="95" width="120" height="600" as="geometry" />
        </mxCell>
        <mxCell id="ax-zA3X9h0pPfd9xHqZ6-6" value="" style="rounded=0;whiteSpace=wrap;html=1;" vertex="1" parent="ax-zA3X9h0pPfd9xHqZ6-21">
          <mxGeometry width="120" height="600" as="geometry" />
        </mxCell>
        <mxCell id="ax-zA3X9h0pPfd9xHqZ6-11" value="elf header" style="rounded=0;whiteSpace=wrap;html=1;" vertex="1" parent="ax-zA3X9h0pPfd9xHqZ6-21">
          <mxGeometry width="120" height="35" as="geometry" />
        </mxCell>
        <mxCell id="ax-zA3X9h0pPfd9xHqZ6-12" value=".text" style="rounded=0;whiteSpace=wrap;html=1;" vertex="1" parent="ax-zA3X9h0pPfd9xHqZ6-21">
          <mxGeometry y="35" width="120" height="35" as="geometry" />
        </mxCell>
        <mxCell id="ax-zA3X9h0pPfd9xHqZ6-13" value=".rela.text" style="rounded=0;whiteSpace=wrap;html=1;" vertex="1" parent="ax-zA3X9h0pPfd9xHqZ6-21">
          <mxGeometry y="70" width="120" height="35" as="geometry" />
        </mxCell>
        <mxCell id="ax-zA3X9h0pPfd9xHqZ6-14" value=".data" style="rounded=0;whiteSpace=wrap;html=1;" vertex="1" parent="ax-zA3X9h0pPfd9xHqZ6-21">
          <mxGeometry y="105" width="120" height="35" as="geometry" />
        </mxCell>
        <mxCell id="ax-zA3X9h0pPfd9xHqZ6-15" value=".bss" style="rounded=0;whiteSpace=wrap;html=1;" vertex="1" parent="ax-zA3X9h0pPfd9xHqZ6-21">
          <mxGeometry y="140" width="120" height="35" as="geometry" />
        </mxCell>
        <mxCell id="ax-zA3X9h0pPfd9xHqZ6-16" value=".rodata" style="rounded=0;whiteSpace=wrap;html=1;" vertex="1" parent="ax-zA3X9h0pPfd9xHqZ6-21">
          <mxGeometry y="175" width="120" height="35" as="geometry" />
        </mxCell>
        <mxCell id="ax-zA3X9h0pPfd9xHqZ6-17" value=".comment" style="rounded=0;whiteSpace=wrap;html=1;" vertex="1" parent="ax-zA3X9h0pPfd9xHqZ6-21">
          <mxGeometry y="210" width="120" height="35" as="geometry" />
        </mxCell>
        <mxCell id="ax-zA3X9h0pPfd9xHqZ6-18" value="...." style="rounded=0;whiteSpace=wrap;html=1;" vertex="1" parent="ax-zA3X9h0pPfd9xHqZ6-21">
          <mxGeometry y="245" width="120" height="35" as="geometry" />
        </mxCell>
        <mxCell id="ax-zA3X9h0pPfd9xHqZ6-19" value=".symtab" style="rounded=0;whiteSpace=wrap;html=1;" vertex="1" parent="ax-zA3X9h0pPfd9xHqZ6-21">
          <mxGeometry y="280" width="120" height="35" as="geometry" />
        </mxCell>
        <mxCell id="ax-zA3X9h0pPfd9xHqZ6-20" value=".strtab" style="rounded=0;whiteSpace=wrap;html=1;" vertex="1" parent="ax-zA3X9h0pPfd9xHqZ6-21">
          <mxGeometry y="315" width="120" height="35" as="geometry" />
        </mxCell>
        <mxCell id="ax-zA3X9h0pPfd9xHqZ6-22" value="readlelf -s simple.o" style="rounded=1;whiteSpace=wrap;html=1;fillColor=#dae8fc;strokeColor=#6c8ebf;" vertex="1" parent="1">
          <mxGeometry x="800" y="337.5" width="160" height="40" as="geometry" />
        </mxCell>
        <mxCell id="ax-zA3X9h0pPfd9xHqZ6-168" value="" style="group" vertex="1" connectable="0" parent="1">
          <mxGeometry x="1030" y="130" width="810" height="455" as="geometry" />
        </mxCell>
        <mxCell id="ax-zA3X9h0pPfd9xHqZ6-32" value="" style="group" vertex="1" connectable="0" parent="ax-zA3X9h0pPfd9xHqZ6-168">
          <mxGeometry width="810" height="35" as="geometry" />
        </mxCell>
        <mxCell id="ax-zA3X9h0pPfd9xHqZ6-23" value="num" style="rounded=0;whiteSpace=wrap;html=1;" vertex="1" parent="ax-zA3X9h0pPfd9xHqZ6-32">
          <mxGeometry width="60" height="35" as="geometry" />
        </mxCell>
        <mxCell id="ax-zA3X9h0pPfd9xHqZ6-24" value="value" style="rounded=0;whiteSpace=wrap;html=1;" vertex="1" parent="ax-zA3X9h0pPfd9xHqZ6-32">
          <mxGeometry x="60" width="120" height="35" as="geometry" />
        </mxCell>
        <mxCell id="ax-zA3X9h0pPfd9xHqZ6-25" value="size" style="rounded=0;whiteSpace=wrap;html=1;" vertex="1" parent="ax-zA3X9h0pPfd9xHqZ6-32">
          <mxGeometry x="180" width="90" height="35" as="geometry" />
        </mxCell>
        <mxCell id="ax-zA3X9h0pPfd9xHqZ6-26" value="type" style="rounded=0;whiteSpace=wrap;html=1;" vertex="1" parent="ax-zA3X9h0pPfd9xHqZ6-32">
          <mxGeometry x="270" width="120" height="35" as="geometry" />
        </mxCell>
        <mxCell id="ax-zA3X9h0pPfd9xHqZ6-27" value="bind" style="rounded=0;whiteSpace=wrap;html=1;" vertex="1" parent="ax-zA3X9h0pPfd9xHqZ6-32">
          <mxGeometry x="390" width="120" height="35" as="geometry" />
        </mxCell>
        <mxCell id="ax-zA3X9h0pPfd9xHqZ6-28" value="vis" style="rounded=0;whiteSpace=wrap;html=1;" vertex="1" parent="ax-zA3X9h0pPfd9xHqZ6-32">
          <mxGeometry x="510" width="120" height="35" as="geometry" />
        </mxCell>
        <mxCell id="ax-zA3X9h0pPfd9xHqZ6-30" value="name" style="rounded=0;whiteSpace=wrap;html=1;" vertex="1" parent="ax-zA3X9h0pPfd9xHqZ6-32">
          <mxGeometry x="690" width="120" height="35" as="geometry" />
        </mxCell>
        <mxCell id="ax-zA3X9h0pPfd9xHqZ6-31" value="ndx" style="rounded=0;whiteSpace=wrap;html=1;" vertex="1" parent="ax-zA3X9h0pPfd9xHqZ6-32">
          <mxGeometry x="630" width="60" height="35" as="geometry" />
        </mxCell>
        <mxCell id="ax-zA3X9h0pPfd9xHqZ6-33" value="" style="group" vertex="1" connectable="0" parent="ax-zA3X9h0pPfd9xHqZ6-168">
          <mxGeometry y="30" width="810" height="35" as="geometry" />
        </mxCell>
        <mxCell id="ax-zA3X9h0pPfd9xHqZ6-34" value="..." style="rounded=0;whiteSpace=wrap;html=1;" vertex="1" parent="ax-zA3X9h0pPfd9xHqZ6-33">
          <mxGeometry width="60" height="35" as="geometry" />
        </mxCell>
        <mxCell id="ax-zA3X9h0pPfd9xHqZ6-35" value="..." style="rounded=0;whiteSpace=wrap;html=1;" vertex="1" parent="ax-zA3X9h0pPfd9xHqZ6-33">
          <mxGeometry x="60" width="120" height="35" as="geometry" />
        </mxCell>
        <mxCell id="ax-zA3X9h0pPfd9xHqZ6-36" value="..." style="rounded=0;whiteSpace=wrap;html=1;" vertex="1" parent="ax-zA3X9h0pPfd9xHqZ6-33">
          <mxGeometry x="180" width="90" height="35" as="geometry" />
        </mxCell>
        <mxCell id="ax-zA3X9h0pPfd9xHqZ6-37" value="..." style="rounded=0;whiteSpace=wrap;html=1;" vertex="1" parent="ax-zA3X9h0pPfd9xHqZ6-33">
          <mxGeometry x="270" width="120" height="35" as="geometry" />
        </mxCell>
        <mxCell id="ax-zA3X9h0pPfd9xHqZ6-38" value="..." style="rounded=0;whiteSpace=wrap;html=1;" vertex="1" parent="ax-zA3X9h0pPfd9xHqZ6-33">
          <mxGeometry x="390" width="120" height="35" as="geometry" />
        </mxCell>
        <mxCell id="ax-zA3X9h0pPfd9xHqZ6-39" value="..." style="rounded=0;whiteSpace=wrap;html=1;" vertex="1" parent="ax-zA3X9h0pPfd9xHqZ6-33">
          <mxGeometry x="510" width="120" height="35" as="geometry" />
        </mxCell>
        <mxCell id="ax-zA3X9h0pPfd9xHqZ6-40" value="..." style="rounded=0;whiteSpace=wrap;html=1;" vertex="1" parent="ax-zA3X9h0pPfd9xHqZ6-33">
          <mxGeometry x="690" width="120" height="35" as="geometry" />
        </mxCell>
        <mxCell id="ax-zA3X9h0pPfd9xHqZ6-41" value="..." style="rounded=0;whiteSpace=wrap;html=1;" vertex="1" parent="ax-zA3X9h0pPfd9xHqZ6-33">
          <mxGeometry x="630" width="60" height="35" as="geometry" />
        </mxCell>
        <mxCell id="ax-zA3X9h0pPfd9xHqZ6-42" value="" style="group" vertex="1" connectable="0" parent="ax-zA3X9h0pPfd9xHqZ6-168">
          <mxGeometry y="60" width="810" height="35" as="geometry" />
        </mxCell>
        <mxCell id="ax-zA3X9h0pPfd9xHqZ6-43" value="6" style="rounded=0;whiteSpace=wrap;html=1;" vertex="1" parent="ax-zA3X9h0pPfd9xHqZ6-42">
          <mxGeometry width="60" height="35" as="geometry" />
        </mxCell>
        <mxCell id="ax-zA3X9h0pPfd9xHqZ6-44" value="&lt;span&gt;...&lt;/span&gt;" style="rounded=0;whiteSpace=wrap;html=1;" vertex="1" parent="ax-zA3X9h0pPfd9xHqZ6-42">
          <mxGeometry x="60" width="120" height="35" as="geometry" />
        </mxCell>
        <mxCell id="ax-zA3X9h0pPfd9xHqZ6-45" value="23" style="rounded=0;whiteSpace=wrap;html=1;" vertex="1" parent="ax-zA3X9h0pPfd9xHqZ6-42">
          <mxGeometry x="180" width="90" height="35" as="geometry" />
        </mxCell>
        <mxCell id="ax-zA3X9h0pPfd9xHqZ6-46" value="Func" style="rounded=0;whiteSpace=wrap;html=1;" vertex="1" parent="ax-zA3X9h0pPfd9xHqZ6-42">
          <mxGeometry x="270" width="120" height="35" as="geometry" />
        </mxCell>
        <mxCell id="ax-zA3X9h0pPfd9xHqZ6-47" value="Local" style="rounded=0;whiteSpace=wrap;html=1;" vertex="1" parent="ax-zA3X9h0pPfd9xHqZ6-42">
          <mxGeometry x="390" width="120" height="35" as="geometry" />
        </mxCell>
        <mxCell id="ax-zA3X9h0pPfd9xHqZ6-48" value="Default" style="rounded=0;whiteSpace=wrap;html=1;" vertex="1" parent="ax-zA3X9h0pPfd9xHqZ6-42">
          <mxGeometry x="510" width="120" height="35" as="geometry" />
        </mxCell>
        <mxCell id="ax-zA3X9h0pPfd9xHqZ6-49" value="static_func" style="rounded=0;whiteSpace=wrap;html=1;" vertex="1" parent="ax-zA3X9h0pPfd9xHqZ6-42">
          <mxGeometry x="690" width="120" height="35" as="geometry" />
        </mxCell>
        <mxCell id="ax-zA3X9h0pPfd9xHqZ6-50" value="1" style="rounded=0;whiteSpace=wrap;html=1;" vertex="1" parent="ax-zA3X9h0pPfd9xHqZ6-42">
          <mxGeometry x="630" width="60" height="35" as="geometry" />
        </mxCell>
        <mxCell id="ax-zA3X9h0pPfd9xHqZ6-51" value="" style="group" vertex="1" connectable="0" parent="ax-zA3X9h0pPfd9xHqZ6-168">
          <mxGeometry y="95" width="810" height="35" as="geometry" />
        </mxCell>
        <mxCell id="ax-zA3X9h0pPfd9xHqZ6-52" value="7" style="rounded=0;whiteSpace=wrap;html=1;" vertex="1" parent="ax-zA3X9h0pPfd9xHqZ6-51">
          <mxGeometry width="60" height="35" as="geometry" />
        </mxCell>
        <mxCell id="ax-zA3X9h0pPfd9xHqZ6-53" value="..." style="rounded=0;whiteSpace=wrap;html=1;" vertex="1" parent="ax-zA3X9h0pPfd9xHqZ6-51">
          <mxGeometry x="60" width="120" height="35" as="geometry" />
        </mxCell>
        <mxCell id="ax-zA3X9h0pPfd9xHqZ6-54" value="4" style="rounded=0;whiteSpace=wrap;html=1;" vertex="1" parent="ax-zA3X9h0pPfd9xHqZ6-51">
          <mxGeometry x="180" width="90" height="35" as="geometry" />
        </mxCell>
        <mxCell id="ax-zA3X9h0pPfd9xHqZ6-55" value="Object" style="rounded=0;whiteSpace=wrap;html=1;" vertex="1" parent="ax-zA3X9h0pPfd9xHqZ6-51">
          <mxGeometry x="270" width="120" height="35" as="geometry" />
        </mxCell>
        <mxCell id="ax-zA3X9h0pPfd9xHqZ6-57" value="Default" style="rounded=0;whiteSpace=wrap;html=1;" vertex="1" parent="ax-zA3X9h0pPfd9xHqZ6-51">
          <mxGeometry x="510" width="120" height="35" as="geometry" />
        </mxCell>
        <mxCell id="ax-zA3X9h0pPfd9xHqZ6-58" value="local_unit_var" style="rounded=0;whiteSpace=wrap;html=1;" vertex="1" parent="ax-zA3X9h0pPfd9xHqZ6-51">
          <mxGeometry x="690" width="120" height="35" as="geometry" />
        </mxCell>
        <mxCell id="ax-zA3X9h0pPfd9xHqZ6-59" value="4" style="rounded=0;whiteSpace=wrap;html=1;" vertex="1" parent="ax-zA3X9h0pPfd9xHqZ6-51">
          <mxGeometry x="630" width="60" height="35" as="geometry" />
        </mxCell>
        <mxCell id="ax-zA3X9h0pPfd9xHqZ6-121" value="Local" style="rounded=0;whiteSpace=wrap;html=1;" vertex="1" parent="ax-zA3X9h0pPfd9xHqZ6-51">
          <mxGeometry x="390" width="120" height="35" as="geometry" />
        </mxCell>
        <mxCell id="ax-zA3X9h0pPfd9xHqZ6-70" value="" style="group" vertex="1" connectable="0" parent="ax-zA3X9h0pPfd9xHqZ6-168">
          <mxGeometry y="166" width="810" height="35" as="geometry" />
        </mxCell>
        <mxCell id="ax-zA3X9h0pPfd9xHqZ6-71" value="9" style="rounded=0;whiteSpace=wrap;html=1;" vertex="1" parent="ax-zA3X9h0pPfd9xHqZ6-70">
          <mxGeometry width="60" height="35" as="geometry" />
        </mxCell>
        <mxCell id="ax-zA3X9h0pPfd9xHqZ6-72" value="..." style="rounded=0;whiteSpace=wrap;html=1;" vertex="1" parent="ax-zA3X9h0pPfd9xHqZ6-70">
          <mxGeometry x="60" width="120" height="35" as="geometry" />
        </mxCell>
        <mxCell id="ax-zA3X9h0pPfd9xHqZ6-73" value="4" style="rounded=0;whiteSpace=wrap;html=1;" vertex="1" parent="ax-zA3X9h0pPfd9xHqZ6-70">
          <mxGeometry x="180" width="90" height="35" as="geometry" />
        </mxCell>
        <mxCell id="ax-zA3X9h0pPfd9xHqZ6-74" value="&lt;span&gt;Object&lt;/span&gt;" style="rounded=0;whiteSpace=wrap;html=1;" vertex="1" parent="ax-zA3X9h0pPfd9xHqZ6-70">
          <mxGeometry x="270" width="120" height="35" as="geometry" />
        </mxCell>
        <mxCell id="ax-zA3X9h0pPfd9xHqZ6-75" value="Local" style="rounded=0;whiteSpace=wrap;html=1;" vertex="1" parent="ax-zA3X9h0pPfd9xHqZ6-70">
          <mxGeometry x="390" width="120" height="35" as="geometry" />
        </mxCell>
        <mxCell id="ax-zA3X9h0pPfd9xHqZ6-76" value="Default" style="rounded=0;whiteSpace=wrap;html=1;" vertex="1" parent="ax-zA3X9h0pPfd9xHqZ6-70">
          <mxGeometry x="510" width="120" height="35" as="geometry" />
        </mxCell>
        <mxCell id="ax-zA3X9h0pPfd9xHqZ6-77" value="static_uninit_var.2330" style="rounded=0;whiteSpace=wrap;html=1;" vertex="1" parent="ax-zA3X9h0pPfd9xHqZ6-70">
          <mxGeometry x="690" width="120" height="35" as="geometry" />
        </mxCell>
        <mxCell id="ax-zA3X9h0pPfd9xHqZ6-78" value="4" style="rounded=0;whiteSpace=wrap;html=1;" vertex="1" parent="ax-zA3X9h0pPfd9xHqZ6-70">
          <mxGeometry x="630" width="60" height="35" as="geometry" />
        </mxCell>
        <mxCell id="ax-zA3X9h0pPfd9xHqZ6-79" value="" style="group" vertex="1" connectable="0" parent="ax-zA3X9h0pPfd9xHqZ6-168">
          <mxGeometry y="201" width="810" height="35" as="geometry" />
        </mxCell>
        <mxCell id="ax-zA3X9h0pPfd9xHqZ6-80" value="10" style="rounded=0;whiteSpace=wrap;html=1;" vertex="1" parent="ax-zA3X9h0pPfd9xHqZ6-79">
          <mxGeometry width="60" height="35" as="geometry" />
        </mxCell>
        <mxCell id="ax-zA3X9h0pPfd9xHqZ6-81" value="..." style="rounded=0;whiteSpace=wrap;html=1;" vertex="1" parent="ax-zA3X9h0pPfd9xHqZ6-79">
          <mxGeometry x="60" width="120" height="35" as="geometry" />
        </mxCell>
        <mxCell id="ax-zA3X9h0pPfd9xHqZ6-82" value="4" style="rounded=0;whiteSpace=wrap;html=1;" vertex="1" parent="ax-zA3X9h0pPfd9xHqZ6-79">
          <mxGeometry x="180" width="90" height="35" as="geometry" />
        </mxCell>
        <mxCell id="ax-zA3X9h0pPfd9xHqZ6-83" value="4" style="rounded=0;whiteSpace=wrap;html=1;" vertex="1" parent="ax-zA3X9h0pPfd9xHqZ6-79">
          <mxGeometry x="270" width="120" height="35" as="geometry" />
        </mxCell>
        <mxCell id="ax-zA3X9h0pPfd9xHqZ6-84" value="Local" style="rounded=0;whiteSpace=wrap;html=1;" vertex="1" parent="ax-zA3X9h0pPfd9xHqZ6-79">
          <mxGeometry x="390" width="120" height="35" as="geometry" />
        </mxCell>
        <mxCell id="ax-zA3X9h0pPfd9xHqZ6-85" value="Default" style="rounded=0;whiteSpace=wrap;html=1;" vertex="1" parent="ax-zA3X9h0pPfd9xHqZ6-79">
          <mxGeometry x="510" width="120" height="35" as="geometry" />
        </mxCell>
        <mxCell id="ax-zA3X9h0pPfd9xHqZ6-86" value="static_init_var.2329" style="rounded=0;whiteSpace=wrap;html=1;" vertex="1" parent="ax-zA3X9h0pPfd9xHqZ6-79">
          <mxGeometry x="690" width="120" height="35" as="geometry" />
        </mxCell>
        <mxCell id="ax-zA3X9h0pPfd9xHqZ6-87" value="3" style="rounded=0;whiteSpace=wrap;html=1;" vertex="1" parent="ax-zA3X9h0pPfd9xHqZ6-79">
          <mxGeometry x="630" width="60" height="35" as="geometry" />
        </mxCell>
        <mxCell id="ax-zA3X9h0pPfd9xHqZ6-89" value="" style="group" vertex="1" connectable="0" parent="ax-zA3X9h0pPfd9xHqZ6-168">
          <mxGeometry y="231" width="810" height="35" as="geometry" />
        </mxCell>
        <mxCell id="ax-zA3X9h0pPfd9xHqZ6-90" value="..." style="rounded=0;whiteSpace=wrap;html=1;" vertex="1" parent="ax-zA3X9h0pPfd9xHqZ6-89">
          <mxGeometry width="60" height="35" as="geometry" />
        </mxCell>
        <mxCell id="ax-zA3X9h0pPfd9xHqZ6-91" value="..." style="rounded=0;whiteSpace=wrap;html=1;" vertex="1" parent="ax-zA3X9h0pPfd9xHqZ6-89">
          <mxGeometry x="60" width="120" height="35" as="geometry" />
        </mxCell>
        <mxCell id="ax-zA3X9h0pPfd9xHqZ6-92" value="..." style="rounded=0;whiteSpace=wrap;html=1;" vertex="1" parent="ax-zA3X9h0pPfd9xHqZ6-89">
          <mxGeometry x="180" width="90" height="35" as="geometry" />
        </mxCell>
        <mxCell id="ax-zA3X9h0pPfd9xHqZ6-93" value="..." style="rounded=0;whiteSpace=wrap;html=1;" vertex="1" parent="ax-zA3X9h0pPfd9xHqZ6-89">
          <mxGeometry x="270" width="120" height="35" as="geometry" />
        </mxCell>
        <mxCell id="ax-zA3X9h0pPfd9xHqZ6-94" value="..." style="rounded=0;whiteSpace=wrap;html=1;" vertex="1" parent="ax-zA3X9h0pPfd9xHqZ6-89">
          <mxGeometry x="390" width="120" height="35" as="geometry" />
        </mxCell>
        <mxCell id="ax-zA3X9h0pPfd9xHqZ6-95" value="..." style="rounded=0;whiteSpace=wrap;html=1;" vertex="1" parent="ax-zA3X9h0pPfd9xHqZ6-89">
          <mxGeometry x="510" width="120" height="35" as="geometry" />
        </mxCell>
        <mxCell id="ax-zA3X9h0pPfd9xHqZ6-96" value="..." style="rounded=0;whiteSpace=wrap;html=1;" vertex="1" parent="ax-zA3X9h0pPfd9xHqZ6-89">
          <mxGeometry x="690" width="120" height="35" as="geometry" />
        </mxCell>
        <mxCell id="ax-zA3X9h0pPfd9xHqZ6-97" value="..." style="rounded=0;whiteSpace=wrap;html=1;" vertex="1" parent="ax-zA3X9h0pPfd9xHqZ6-89">
          <mxGeometry x="630" width="60" height="35" as="geometry" />
        </mxCell>
        <mxCell id="ax-zA3X9h0pPfd9xHqZ6-98" value="" style="group" vertex="1" connectable="0" parent="ax-zA3X9h0pPfd9xHqZ6-168">
          <mxGeometry y="261" width="810" height="35" as="geometry" />
        </mxCell>
        <mxCell id="ax-zA3X9h0pPfd9xHqZ6-99" value="16" style="rounded=0;whiteSpace=wrap;html=1;" vertex="1" parent="ax-zA3X9h0pPfd9xHqZ6-98">
          <mxGeometry width="60" height="35" as="geometry" />
        </mxCell>
        <mxCell id="ax-zA3X9h0pPfd9xHqZ6-100" value="&lt;span&gt;...&lt;/span&gt;" style="rounded=0;whiteSpace=wrap;html=1;" vertex="1" parent="ax-zA3X9h0pPfd9xHqZ6-98">
          <mxGeometry x="60" width="120" height="35" as="geometry" />
        </mxCell>
        <mxCell id="ax-zA3X9h0pPfd9xHqZ6-101" value="0" style="rounded=0;whiteSpace=wrap;html=1;" vertex="1" parent="ax-zA3X9h0pPfd9xHqZ6-98">
          <mxGeometry x="180" width="90" height="35" as="geometry" />
        </mxCell>
        <mxCell id="ax-zA3X9h0pPfd9xHqZ6-102" value="Notype" style="rounded=0;whiteSpace=wrap;html=1;" vertex="1" parent="ax-zA3X9h0pPfd9xHqZ6-98">
          <mxGeometry x="270" width="120" height="35" as="geometry" />
        </mxCell>
        <mxCell id="ax-zA3X9h0pPfd9xHqZ6-103" value="Global" style="rounded=0;whiteSpace=wrap;html=1;" vertex="1" parent="ax-zA3X9h0pPfd9xHqZ6-98">
          <mxGeometry x="390" width="120" height="35" as="geometry" />
        </mxCell>
        <mxCell id="ax-zA3X9h0pPfd9xHqZ6-104" value="Default" style="rounded=0;whiteSpace=wrap;html=1;" vertex="1" parent="ax-zA3X9h0pPfd9xHqZ6-98">
          <mxGeometry x="510" width="120" height="35" as="geometry" />
        </mxCell>
        <mxCell id="ax-zA3X9h0pPfd9xHqZ6-105" value="puts" style="rounded=0;whiteSpace=wrap;html=1;" vertex="1" parent="ax-zA3X9h0pPfd9xHqZ6-98">
          <mxGeometry x="690" width="120" height="35" as="geometry" />
        </mxCell>
        <mxCell id="ax-zA3X9h0pPfd9xHqZ6-106" value="UND" style="rounded=0;whiteSpace=wrap;html=1;" vertex="1" parent="ax-zA3X9h0pPfd9xHqZ6-98">
          <mxGeometry x="630" width="60" height="35" as="geometry" />
        </mxCell>
        <mxCell id="ax-zA3X9h0pPfd9xHqZ6-120" value="" style="group" vertex="1" connectable="0" parent="ax-zA3X9h0pPfd9xHqZ6-168">
          <mxGeometry y="130" width="810" height="35" as="geometry" />
        </mxCell>
        <mxCell id="ax-zA3X9h0pPfd9xHqZ6-62" value="8" style="rounded=0;whiteSpace=wrap;html=1;" vertex="1" parent="ax-zA3X9h0pPfd9xHqZ6-120">
          <mxGeometry width="60" height="35" as="geometry" />
        </mxCell>
        <mxCell id="ax-zA3X9h0pPfd9xHqZ6-63" value="..." style="rounded=0;whiteSpace=wrap;html=1;" vertex="1" parent="ax-zA3X9h0pPfd9xHqZ6-120">
          <mxGeometry x="60" width="120" height="35" as="geometry" />
        </mxCell>
        <mxCell id="ax-zA3X9h0pPfd9xHqZ6-64" value="4" style="rounded=0;whiteSpace=wrap;html=1;" vertex="1" parent="ax-zA3X9h0pPfd9xHqZ6-120">
          <mxGeometry x="180" width="90" height="35" as="geometry" />
        </mxCell>
        <mxCell id="ax-zA3X9h0pPfd9xHqZ6-65" value="Object" style="rounded=0;whiteSpace=wrap;html=1;" vertex="1" parent="ax-zA3X9h0pPfd9xHqZ6-120">
          <mxGeometry x="270" width="120" height="35" as="geometry" />
        </mxCell>
        <mxCell id="ax-zA3X9h0pPfd9xHqZ6-67" value="Default" style="rounded=0;whiteSpace=wrap;html=1;" vertex="1" parent="ax-zA3X9h0pPfd9xHqZ6-120">
          <mxGeometry x="510" width="120" height="35" as="geometry" />
        </mxCell>
        <mxCell id="ax-zA3X9h0pPfd9xHqZ6-68" value="static_init_var" style="rounded=0;whiteSpace=wrap;html=1;" vertex="1" parent="ax-zA3X9h0pPfd9xHqZ6-120">
          <mxGeometry x="690" width="120" height="35" as="geometry" />
        </mxCell>
        <mxCell id="ax-zA3X9h0pPfd9xHqZ6-69" value="3" style="rounded=0;whiteSpace=wrap;html=1;" vertex="1" parent="ax-zA3X9h0pPfd9xHqZ6-120">
          <mxGeometry x="630" width="60" height="35" as="geometry" />
        </mxCell>
        <mxCell id="ax-zA3X9h0pPfd9xHqZ6-56" value="Local" style="rounded=0;whiteSpace=wrap;html=1;" vertex="1" parent="ax-zA3X9h0pPfd9xHqZ6-120">
          <mxGeometry x="390" width="120" height="35" as="geometry" />
        </mxCell>
        <mxCell id="ax-zA3X9h0pPfd9xHqZ6-122" value="" style="group" vertex="1" connectable="0" parent="ax-zA3X9h0pPfd9xHqZ6-168">
          <mxGeometry y="290" width="810" height="35" as="geometry" />
        </mxCell>
        <mxCell id="ax-zA3X9h0pPfd9xHqZ6-123" value="17" style="rounded=0;whiteSpace=wrap;html=1;" vertex="1" parent="ax-zA3X9h0pPfd9xHqZ6-122">
          <mxGeometry width="60" height="35" as="geometry" />
        </mxCell>
        <mxCell id="ax-zA3X9h0pPfd9xHqZ6-124" value="&lt;span&gt;...&lt;/span&gt;" style="rounded=0;whiteSpace=wrap;html=1;" vertex="1" parent="ax-zA3X9h0pPfd9xHqZ6-122">
          <mxGeometry x="60" width="120" height="35" as="geometry" />
        </mxCell>
        <mxCell id="ax-zA3X9h0pPfd9xHqZ6-125" value="23" style="rounded=0;whiteSpace=wrap;html=1;" vertex="1" parent="ax-zA3X9h0pPfd9xHqZ6-122">
          <mxGeometry x="180" width="90" height="35" as="geometry" />
        </mxCell>
        <mxCell id="ax-zA3X9h0pPfd9xHqZ6-126" value="Func" style="rounded=0;whiteSpace=wrap;html=1;" vertex="1" parent="ax-zA3X9h0pPfd9xHqZ6-122">
          <mxGeometry x="270" width="120" height="35" as="geometry" />
        </mxCell>
        <mxCell id="ax-zA3X9h0pPfd9xHqZ6-127" value="Global" style="rounded=0;whiteSpace=wrap;html=1;" vertex="1" parent="ax-zA3X9h0pPfd9xHqZ6-122">
          <mxGeometry x="390" width="120" height="35" as="geometry" />
        </mxCell>
        <mxCell id="ax-zA3X9h0pPfd9xHqZ6-128" value="Default" style="rounded=0;whiteSpace=wrap;html=1;" vertex="1" parent="ax-zA3X9h0pPfd9xHqZ6-122">
          <mxGeometry x="510" width="120" height="35" as="geometry" />
        </mxCell>
        <mxCell id="ax-zA3X9h0pPfd9xHqZ6-129" value="global_func" style="rounded=0;whiteSpace=wrap;html=1;" vertex="1" parent="ax-zA3X9h0pPfd9xHqZ6-122">
          <mxGeometry x="690" width="120" height="35" as="geometry" />
        </mxCell>
        <mxCell id="ax-zA3X9h0pPfd9xHqZ6-130" value="1" style="rounded=0;whiteSpace=wrap;html=1;" vertex="1" parent="ax-zA3X9h0pPfd9xHqZ6-122">
          <mxGeometry x="630" width="60" height="35" as="geometry" />
        </mxCell>
        <mxCell id="ax-zA3X9h0pPfd9xHqZ6-131" value="" style="group" vertex="1" connectable="0" parent="ax-zA3X9h0pPfd9xHqZ6-168">
          <mxGeometry y="320" width="810" height="35" as="geometry" />
        </mxCell>
        <mxCell id="ax-zA3X9h0pPfd9xHqZ6-132" value="18" style="rounded=0;whiteSpace=wrap;html=1;" vertex="1" parent="ax-zA3X9h0pPfd9xHqZ6-131">
          <mxGeometry width="60" height="35" as="geometry" />
        </mxCell>
        <mxCell id="ax-zA3X9h0pPfd9xHqZ6-133" value="&lt;span&gt;...&lt;/span&gt;" style="rounded=0;whiteSpace=wrap;html=1;" vertex="1" parent="ax-zA3X9h0pPfd9xHqZ6-131">
          <mxGeometry x="60" width="120" height="35" as="geometry" />
        </mxCell>
        <mxCell id="ax-zA3X9h0pPfd9xHqZ6-134" value="4" style="rounded=0;whiteSpace=wrap;html=1;" vertex="1" parent="ax-zA3X9h0pPfd9xHqZ6-131">
          <mxGeometry x="180" width="90" height="35" as="geometry" />
        </mxCell>
        <mxCell id="ax-zA3X9h0pPfd9xHqZ6-135" value="Object" style="rounded=0;whiteSpace=wrap;html=1;" vertex="1" parent="ax-zA3X9h0pPfd9xHqZ6-131">
          <mxGeometry x="270" width="120" height="35" as="geometry" />
        </mxCell>
        <mxCell id="ax-zA3X9h0pPfd9xHqZ6-136" value="Global" style="rounded=0;whiteSpace=wrap;html=1;" vertex="1" parent="ax-zA3X9h0pPfd9xHqZ6-131">
          <mxGeometry x="390" width="120" height="35" as="geometry" />
        </mxCell>
        <mxCell id="ax-zA3X9h0pPfd9xHqZ6-137" value="Default" style="rounded=0;whiteSpace=wrap;html=1;" vertex="1" parent="ax-zA3X9h0pPfd9xHqZ6-131">
          <mxGeometry x="510" width="120" height="35" as="geometry" />
        </mxCell>
        <mxCell id="ax-zA3X9h0pPfd9xHqZ6-138" value="global_init_var" style="rounded=0;whiteSpace=wrap;html=1;" vertex="1" parent="ax-zA3X9h0pPfd9xHqZ6-131">
          <mxGeometry x="690" width="120" height="35" as="geometry" />
        </mxCell>
        <mxCell id="ax-zA3X9h0pPfd9xHqZ6-139" value="1" style="rounded=0;whiteSpace=wrap;html=1;" vertex="1" parent="ax-zA3X9h0pPfd9xHqZ6-131">
          <mxGeometry x="630" width="60" height="35" as="geometry" />
        </mxCell>
        <mxCell id="ax-zA3X9h0pPfd9xHqZ6-140" value="" style="group" vertex="1" connectable="0" parent="ax-zA3X9h0pPfd9xHqZ6-168">
          <mxGeometry y="350" width="810" height="35" as="geometry" />
        </mxCell>
        <mxCell id="ax-zA3X9h0pPfd9xHqZ6-141" value="19" style="rounded=0;whiteSpace=wrap;html=1;" vertex="1" parent="ax-zA3X9h0pPfd9xHqZ6-140">
          <mxGeometry width="60" height="35" as="geometry" />
        </mxCell>
        <mxCell id="ax-zA3X9h0pPfd9xHqZ6-142" value="&lt;span&gt;...&lt;/span&gt;" style="rounded=0;whiteSpace=wrap;html=1;" vertex="1" parent="ax-zA3X9h0pPfd9xHqZ6-140">
          <mxGeometry x="60" width="120" height="35" as="geometry" />
        </mxCell>
        <mxCell id="ax-zA3X9h0pPfd9xHqZ6-143" value="4" style="rounded=0;whiteSpace=wrap;html=1;" vertex="1" parent="ax-zA3X9h0pPfd9xHqZ6-140">
          <mxGeometry x="180" width="90" height="35" as="geometry" />
        </mxCell>
        <mxCell id="ax-zA3X9h0pPfd9xHqZ6-144" value="Object" style="rounded=0;whiteSpace=wrap;html=1;" vertex="1" parent="ax-zA3X9h0pPfd9xHqZ6-140">
          <mxGeometry x="270" width="120" height="35" as="geometry" />
        </mxCell>
        <mxCell id="ax-zA3X9h0pPfd9xHqZ6-145" value="Global" style="rounded=0;whiteSpace=wrap;html=1;" vertex="1" parent="ax-zA3X9h0pPfd9xHqZ6-140">
          <mxGeometry x="390" width="120" height="35" as="geometry" />
        </mxCell>
        <mxCell id="ax-zA3X9h0pPfd9xHqZ6-146" value="Default" style="rounded=0;whiteSpace=wrap;html=1;" vertex="1" parent="ax-zA3X9h0pPfd9xHqZ6-140">
          <mxGeometry x="510" width="120" height="35" as="geometry" />
        </mxCell>
        <mxCell id="ax-zA3X9h0pPfd9xHqZ6-147" value="global_uninit_var" style="rounded=0;whiteSpace=wrap;html=1;" vertex="1" parent="ax-zA3X9h0pPfd9xHqZ6-140">
          <mxGeometry x="690" width="120" height="35" as="geometry" />
        </mxCell>
        <mxCell id="ax-zA3X9h0pPfd9xHqZ6-148" value="Com" style="rounded=0;whiteSpace=wrap;html=1;" vertex="1" parent="ax-zA3X9h0pPfd9xHqZ6-140">
          <mxGeometry x="630" width="60" height="35" as="geometry" />
        </mxCell>
        <mxCell id="ax-zA3X9h0pPfd9xHqZ6-149" value="" style="group" vertex="1" connectable="0" parent="ax-zA3X9h0pPfd9xHqZ6-168">
          <mxGeometry y="385" width="810" height="35" as="geometry" />
        </mxCell>
        <mxCell id="ax-zA3X9h0pPfd9xHqZ6-150" value="20" style="rounded=0;whiteSpace=wrap;html=1;" vertex="1" parent="ax-zA3X9h0pPfd9xHqZ6-149">
          <mxGeometry width="60" height="35" as="geometry" />
        </mxCell>
        <mxCell id="ax-zA3X9h0pPfd9xHqZ6-151" value="&lt;span&gt;...&lt;/span&gt;" style="rounded=0;whiteSpace=wrap;html=1;" vertex="1" parent="ax-zA3X9h0pPfd9xHqZ6-149">
          <mxGeometry x="60" width="120" height="35" as="geometry" />
        </mxCell>
        <mxCell id="ax-zA3X9h0pPfd9xHqZ6-152" value="63" style="rounded=0;whiteSpace=wrap;html=1;" vertex="1" parent="ax-zA3X9h0pPfd9xHqZ6-149">
          <mxGeometry x="180" width="90" height="35" as="geometry" />
        </mxCell>
        <mxCell id="ax-zA3X9h0pPfd9xHqZ6-153" value="Object" style="rounded=0;whiteSpace=wrap;html=1;" vertex="1" parent="ax-zA3X9h0pPfd9xHqZ6-149">
          <mxGeometry x="270" width="120" height="35" as="geometry" />
        </mxCell>
        <mxCell id="ax-zA3X9h0pPfd9xHqZ6-154" value="Global" style="rounded=0;whiteSpace=wrap;html=1;" vertex="1" parent="ax-zA3X9h0pPfd9xHqZ6-149">
          <mxGeometry x="390" width="120" height="35" as="geometry" />
        </mxCell>
        <mxCell id="ax-zA3X9h0pPfd9xHqZ6-155" value="Default" style="rounded=0;whiteSpace=wrap;html=1;" vertex="1" parent="ax-zA3X9h0pPfd9xHqZ6-149">
          <mxGeometry x="510" width="120" height="35" as="geometry" />
        </mxCell>
        <mxCell id="ax-zA3X9h0pPfd9xHqZ6-156" value="main" style="rounded=0;whiteSpace=wrap;html=1;" vertex="1" parent="ax-zA3X9h0pPfd9xHqZ6-149">
          <mxGeometry x="690" width="120" height="35" as="geometry" />
        </mxCell>
        <mxCell id="ax-zA3X9h0pPfd9xHqZ6-157" value="1" style="rounded=0;whiteSpace=wrap;html=1;" vertex="1" parent="ax-zA3X9h0pPfd9xHqZ6-149">
          <mxGeometry x="630" width="60" height="35" as="geometry" />
        </mxCell>
        <mxCell id="ax-zA3X9h0pPfd9xHqZ6-158" value="" style="group" vertex="1" connectable="0" parent="ax-zA3X9h0pPfd9xHqZ6-168">
          <mxGeometry y="420" width="810" height="35" as="geometry" />
        </mxCell>
        <mxCell id="ax-zA3X9h0pPfd9xHqZ6-159" value="21" style="rounded=0;whiteSpace=wrap;html=1;" vertex="1" parent="ax-zA3X9h0pPfd9xHqZ6-158">
          <mxGeometry width="60" height="35" as="geometry" />
        </mxCell>
        <mxCell id="ax-zA3X9h0pPfd9xHqZ6-160" value="&lt;span&gt;...&lt;/span&gt;" style="rounded=0;whiteSpace=wrap;html=1;" vertex="1" parent="ax-zA3X9h0pPfd9xHqZ6-158">
          <mxGeometry x="60" width="120" height="35" as="geometry" />
        </mxCell>
        <mxCell id="ax-zA3X9h0pPfd9xHqZ6-161" value="0" style="rounded=0;whiteSpace=wrap;html=1;" vertex="1" parent="ax-zA3X9h0pPfd9xHqZ6-158">
          <mxGeometry x="180" width="90" height="35" as="geometry" />
        </mxCell>
        <mxCell id="ax-zA3X9h0pPfd9xHqZ6-162" value="Notype" style="rounded=0;whiteSpace=wrap;html=1;" vertex="1" parent="ax-zA3X9h0pPfd9xHqZ6-158">
          <mxGeometry x="270" width="120" height="35" as="geometry" />
        </mxCell>
        <mxCell id="ax-zA3X9h0pPfd9xHqZ6-163" value="Global" style="rounded=0;whiteSpace=wrap;html=1;" vertex="1" parent="ax-zA3X9h0pPfd9xHqZ6-158">
          <mxGeometry x="390" width="120" height="35" as="geometry" />
        </mxCell>
        <mxCell id="ax-zA3X9h0pPfd9xHqZ6-164" value="Default" style="rounded=0;whiteSpace=wrap;html=1;" vertex="1" parent="ax-zA3X9h0pPfd9xHqZ6-158">
          <mxGeometry x="510" width="120" height="35" as="geometry" />
        </mxCell>
        <mxCell id="ax-zA3X9h0pPfd9xHqZ6-165" value="extern_func" style="rounded=0;whiteSpace=wrap;html=1;" vertex="1" parent="ax-zA3X9h0pPfd9xHqZ6-158">
          <mxGeometry x="690" width="120" height="35" as="geometry" />
        </mxCell>
        <mxCell id="ax-zA3X9h0pPfd9xHqZ6-166" value="UND" style="rounded=0;whiteSpace=wrap;html=1;" vertex="1" parent="ax-zA3X9h0pPfd9xHqZ6-158">
          <mxGeometry x="630" width="60" height="35" as="geometry" />
        </mxCell>
        <mxCell id="ax-zA3X9h0pPfd9xHqZ6-172" style="rounded=0;orthogonalLoop=1;jettySize=auto;html=1;entryX=0;entryY=0;entryDx=0;entryDy=0;" edge="1" parent="1" source="ax-zA3X9h0pPfd9xHqZ6-19" target="ax-zA3X9h0pPfd9xHqZ6-99">
          <mxGeometry relative="1" as="geometry">
            <mxPoint x="1020" y="400" as="targetPoint" />
          </mxGeometry>
        </mxCell>
      </root>
    </mxGraphModel>
  </diagram>
</mxfile>
